PathFileType	4	(X/Y/Z)	C:\Users\italobelli\Desktop\GitHub\PTbot_officialCBL\Personal_Results\SHRUG21_noisy1.trc
DataRate	CameraRate	NumFrames	NumMarkers	Units	OrigDataRate	OrigDataStartFrame	OrigNumFrames
112.250000	112.250000	25	9	m	112.250000	57	450
Frame#	Time		gu		centelbow		EpL		centpxt8		centijc7		ij		ts		aa		ai
			X1	Y1	Z1	X2	Y2	Z2	X3	Y3	Z3	X4	Y4	Z4	X5	Y5	Z5	X6	Y6	Z6	X7	Y7	Z7	X8	Y8	Z8	X9	Y9	Z9

57	0.49889	-0.077555	-0.019681	0.16784	-0.12328	-0.25856	0.18979	-0.10639	-0.25578	0.21711	-0.046816	-0.15316	-0.008669	-0.046816	0.031938	-0.008669	0	0	0	-0.13476	0.028068	0.055014	-0.10357	0.018269	0.16971	-0.15791	-0.083037	0.057234
58	0.5078	-0.077573	-0.019687	0.16785	-0.12325	-0.25856	0.18976	-0.10636	-0.25578	0.21708	-0.046816	-0.15316	-0.008669	-0.046816	0.031938	-0.008669	0	0	0	-0.13476	0.028107	0.055011	-0.10358	0.018281	0.16971	-0.15791	-0.083004	0.057212
59	0.5167	-0.077593	-0.019691	0.16785	-0.12322	-0.25856	0.1897	-0.10634	-0.25578	0.21702	-0.046816	-0.15316	-0.008669	-0.046816	0.031938	-0.008669	0	0	0	-0.13476	0.028149	0.055005	-0.10359	0.018297	0.16971	-0.1579	-0.082967	0.057183
60	0.52561	-0.077613	-0.019694	0.16785	-0.12319	-0.25856	0.18963	-0.10631	-0.25578	0.21696	-0.046816	-0.15316	-0.008669	-0.046816	0.031938	-0.008669	0	0	0	-0.13475	0.028195	0.054998	-0.1036	0.018316	0.16971	-0.1579	-0.082926	0.057146
61	0.53452	-0.077635	-0.019695	0.16785	-0.12316	-0.25857	0.18954	-0.10628	-0.25579	0.21687	-0.046816	-0.15316	-0.008669	-0.046816	0.031938	-0.008669	0	0	0	-0.13475	0.028244	0.054988	-0.10362	0.018338	0.1697	-0.1579	-0.082881	0.057103
62	0.54343	-0.077657	-0.019696	0.16785	-0.12313	-0.25859	0.18944	-0.10625	-0.2558	0.21677	-0.046816	-0.15316	-0.008669	-0.046816	0.031938	-0.008669	0	0	0	-0.13475	0.028297	0.054977	-0.10364	0.018362	0.1697	-0.1579	-0.082833	0.057053
63	0.55234	-0.077681	-0.019696	0.16785	-0.1231	-0.2586	0.18932	-0.10622	-0.25581	0.21666	-0.046816	-0.15316	-0.008669	-0.046816	0.031938	-0.008669	0	0	0	-0.13475	0.028353	0.054963	-0.10365	0.01839	0.16969	-0.1579	-0.082781	0.056996
64	0.56125	-0.077705	-0.019694	0.16784	-0.12307	-0.25862	0.18919	-0.10619	-0.25583	0.21653	-0.046816	-0.15316	-0.008669	-0.046816	0.031938	-0.008669	0	0	0	-0.13474	0.028413	0.054948	-0.10367	0.018421	0.16968	-0.1579	-0.082726	0.056934
65	0.57016	-0.077731	-0.019691	0.16784	-0.12303	-0.25864	0.18905	-0.10616	-0.25585	0.21639	-0.046816	-0.15316	-0.008669	-0.046816	0.031938	-0.008669	0	0	0	-0.13474	0.028476	0.05493	-0.10369	0.018455	0.16967	-0.15791	-0.082667	0.056865
66	0.57906	-0.077758	-0.019687	0.16783	-0.123	-0.25867	0.18889	-0.10613	-0.25587	0.21624	-0.046816	-0.15316	-0.008669	-0.046816	0.031938	-0.008669	0	0	0	-0.13474	0.028543	0.054911	-0.10372	0.018491	0.16965	-0.15791	-0.082605	0.056792
67	0.58797	-0.077785	-0.019683	0.16782	-0.12297	-0.25869	0.18873	-0.1061	-0.2559	0.21607	-0.046816	-0.15316	-0.008669	-0.046816	0.031938	-0.008669	0	0	0	-0.13474	0.028613	0.05489	-0.10374	0.018531	0.16964	-0.15791	-0.082539	0.056713
68	0.59688	-0.077814	-0.019677	0.16781	-0.12294	-0.25872	0.18855	-0.10607	-0.25593	0.2159	-0.046816	-0.15316	-0.008669	-0.046816	0.031938	-0.008669	0	0	0	-0.13474	0.028686	0.054867	-0.10376	0.018573	0.16962	-0.15792	-0.08247	0.056629
69	0.60579	-0.077844	-0.01967	0.16779	-0.12291	-0.25876	0.18836	-0.10604	-0.25596	0.21571	-0.046816	-0.15316	-0.008669	-0.046816	0.031938	-0.008669	0	0	0	-0.13474	0.028763	0.054842	-0.10379	0.018619	0.1696	-0.15792	-0.082397	0.056541
70	0.6147	-0.077875	-0.019662	0.16778	-0.12287	-0.25879	0.18816	-0.10601	-0.25599	0.21552	-0.046816	-0.15316	-0.008669	-0.046816	0.031938	-0.008669	0	0	0	-0.13474	0.028843	0.054815	-0.10382	0.018667	0.16958	-0.15793	-0.082321	0.056448
71	0.62361	-0.077906	-0.019652	0.16776	-0.12284	-0.25883	0.18795	-0.10598	-0.25602	0.21531	-0.046816	-0.15316	-0.008669	-0.046816	0.031938	-0.008669	0	0	0	-0.13474	0.028926	0.054786	-0.10385	0.018718	0.16956	-0.15793	-0.082242	0.056351
72	0.63252	-0.077939	-0.019642	0.16774	-0.12281	-0.25887	0.18774	-0.10595	-0.25606	0.2151	-0.046816	-0.15316	-0.008669	-0.046816	0.031938	-0.008669	0	0	0	-0.13473	0.029012	0.054756	-0.10388	0.018772	0.16954	-0.15794	-0.08216	0.056251
73	0.64143	-0.077973	-0.019631	0.16772	-0.12278	-0.25891	0.18751	-0.10592	-0.2561	0.21488	-0.046816	-0.15316	-0.008669	-0.046816	0.031938	-0.008669	0	0	0	-0.13473	0.029101	0.054724	-0.10391	0.018829	0.16952	-0.15794	-0.082074	0.056147
74	0.65033	-0.078009	-0.019619	0.1677	-0.12274	-0.25895	0.18728	-0.10589	-0.25614	0.21465	-0.046816	-0.15316	-0.008669	-0.046816	0.031938	-0.008669	0	0	0	-0.13473	0.029193	0.05469	-0.10395	0.018889	0.16949	-0.15795	-0.081985	0.056039
75	0.65924	-0.078045	-0.019605	0.16768	-0.12271	-0.259	0.18705	-0.10586	-0.25618	0.21442	-0.046816	-0.15316	-0.008669	-0.046816	0.031938	-0.008669	0	0	0	-0.13473	0.029289	0.054654	-0.10398	0.018952	0.16946	-0.15796	-0.081892	0.055929
76	0.66815	-0.078082	-0.019591	0.16766	-0.12268	-0.25904	0.1868	-0.10583	-0.25622	0.21418	-0.046816	-0.15316	-0.008669	-0.046816	0.031938	-0.008669	0	0	0	-0.13473	0.029387	0.054616	-0.10402	0.019018	0.16943	-0.15796	-0.081797	0.055816
77	0.67706	-0.07812	-0.019576	0.16763	-0.12264	-0.25909	0.18655	-0.1058	-0.25627	0.21393	-0.046816	-0.15316	-0.008669	-0.046816	0.031938	-0.008669	0	0	0	-0.13473	0.029488	0.054577	-0.10406	0.019086	0.1694	-0.15797	-0.081699	0.055701
78	0.68597	-0.07816	-0.01956	0.1676	-0.12261	-0.25914	0.1863	-0.10577	-0.25631	0.21368	-0.046816	-0.15316	-0.008669	-0.046816	0.031938	-0.008669	0	0	0	-0.13473	0.029592	0.054536	-0.1041	0.019158	0.16937	-0.15798	-0.081597	0.055584
79	0.69488	-0.0782	-0.019542	0.16758	-0.12257	-0.25919	0.18604	-0.10574	-0.25636	0.21343	-0.046816	-0.15316	-0.008669	-0.046816	0.031938	-0.008669	0	0	0	-0.13473	0.029699	0.054493	-0.10414	0.019232	0.16934	-0.15799	-0.081493	0.055465
80	0.70379	-0.078242	-0.019524	0.16755	-0.12254	-0.25924	0.18578	-0.10571	-0.25641	0.21317	-0.046816	-0.15316	-0.008669	-0.046816	0.031938	-0.008669	0	0	0	-0.13473	0.029808	0.054448	-0.10418	0.019309	0.1693	-0.158	-0.081385	0.055344
81	0.71269	-0.078284	-0.019505	0.16752	-0.1225	-0.25929	0.18552	-0.10567	-0.25646	0.21291	-0.046816	-0.15316	-0.008669	-0.046816	0.031938	-0.008669	0	0	0	-0.13473	0.02992	0.054402	-0.10423	0.019389	0.16927	-0.15801	-0.081274	0.055223
